<?xml version="1.0" encoding="utf-8"?>
<!-- Generator: Adobe Illustrator 25.0.1, SVG Export Plug-In . SVG Version: 6.00 Build 0)  -->
<svg version="1.1" id="Calque_1" xmlns="http://www.w3.org/2000/svg" xmlns:xlink="http://www.w3.org/1999/xlink" x="0px" y="0px"
	 viewBox="0 0 688.33 388.93" style="enable-background:new 0 0 688.33 388.93;" xml:space="preserve">
<style type="text/css">
	.st0{fill:#282B2A;}
	.st1{fill:none;}
</style>
<path class="st0" d="M174.92,166.19l-21.1-12.26c-2.52-1.46-5.32-2.19-8.13-2.19c-2.81,0-5.61,0.73-8.13,2.19l-21.1,12.26
	c-5.03,2.92-8.13,8.33-8.13,14.17v24.52c0,5.84,3.1,11.25,8.13,14.17l21.1,12.26c2.52,1.46,5.32,2.19,8.13,2.19
	c2.81,0,5.61-0.73,8.13-2.19l21.1-12.26c5.03-2.92,8.13-8.33,8.13-14.17v-24.52C183.04,174.51,179.95,169.11,174.92,166.19z
	 M174.42,204.88c0,2.73-1.46,5.28-3.82,6.65l-21.1,12.26c-1.16,0.68-2.48,1.03-3.82,1.03c-1.34,0-2.66-0.35-3.82-1.03l-21.1-12.26
	c-2.35-1.37-3.82-3.92-3.82-6.65v-24.52c0-2.73,1.46-5.28,3.82-6.65l21.1-12.26c1.16-0.67,2.48-1.03,3.82-1.03
	c1.34,0,2.66,0.36,3.82,1.03l21.1,12.26c2.35,1.37,3.82,3.92,3.82,6.65V204.88z"/>
<path class="st0" d="M248.53,204.81c-0.07,0.07-7.14,7.12-16.42,7.12c-11.3,0-17.22-8.72-17.22-17.33c0-9.91,7.05-17.11,16.77-17.11
	c8.6,0,14.43,5.93,14.49,5.99l0.65,0.67l7.13-11.07l-0.35-0.42c-0.3-0.36-7.52-8.85-22.71-8.85c-18.56,0-32.03,13-32.03,30.9
	s13.47,30.91,32.03,30.91c15.63,0,23.94-9.24,24.28-9.63l0.34-0.39l-6.26-11.5L248.53,204.81z"/>
<path class="st0" d="M286.78,163.81c-13.77,0-22.68,6.98-23.06,7.28l-0.48,0.38l6.11,11.59l0.69-0.51
	c0.07-0.05,7.48-5.39,15.38-5.39c6.95,0,10.33,3.08,10.33,9.42l-1.18,0.05c-13.02,0-34.86,2.64-34.86,20.29
	c0,12.28,10.21,18.7,20.29,18.7c6.95,0,11.51-2.82,14.11-5.19c1.11-1.01,2.01-2.07,2.68-3c-0.01,0.42-0.02,0.87-0.02,1.34v5.49h14.7
	v-36.78C311.47,172.44,302.47,163.81,286.78,163.81z M295.87,198.55c0,6.79-5.24,14.39-12.25,14.39c-5.49,0-7.95-3.37-7.95-6.71
	c0-6.85,10.04-8.29,18.46-8.29h1.74V198.55z"/>
<path class="st0" d="M357.72,164.37c-7.32,0-14,4.58-17.56,11.71c0-0.08,0-0.16,0-0.24v-10.68h-15.27v59.1h15.83V200.7
	c0-3.62,0.39-6.61,1.21-9.15c2.69-8.53,9.51-11.57,14.99-11.57c1.83,0,3.26,0.22,3.28,0.22l0.86,0.13v-15.61l-0.61-0.11
	C360.4,164.6,359.13,164.37,357.72,164.37z"/>
<path class="st0" d="M401.66,163.81c-9.11,0-14.36,4.46-16.61,7.01c0.04-0.77,0.07-1.71,0.07-2.76v-25.48h-15.83v81.69h15.04v-4.02
	c0-0.66-0.02-1.27-0.05-1.81c2.27,2.61,7.53,7.18,16.47,7.18c16,0,27.18-12.71,27.18-30.91
	C427.93,176.23,417.38,163.81,401.66,163.81z M398.27,212.04c-9.35,0-13.6-8.81-13.6-16.99c0-12.86,7.09-17.44,13.72-17.44
	c8.14,0,13.6,6.97,13.6,17.33C411.99,205.17,406.48,212.04,398.27,212.04z"/>
<path class="st0" d="M466.38,163.81c-18.46,0-32.37,13.29-32.37,30.9s13.97,30.91,32.49,30.91c18.46,0,32.37-13.29,32.37-30.91
	S484.9,163.81,466.38,163.81z M466.5,211.93c-9.36,0-16.43-7.4-16.43-17.22c0-9.82,7.06-17.22,16.43-17.22
	c9.3,0,16.31,7.4,16.31,17.22C482.81,204.53,475.8,211.93,466.5,211.93z"/>
<path class="st0" d="M543.88,163.81c-11.06,0-17.05,6.17-19.73,10.08c0.02-0.41,0.03-0.86,0.03-1.31v-7.41H508.9v59.1h15.83v-27.18
	c0-3.08,0.31-5.44,0.98-7.46c2.16-6.92,7.82-11.23,14.77-11.23c5.97,0,8.4,3.19,8.4,11.01v34.86h15.72v-37.8
	C564.61,171.43,557.64,163.81,543.88,163.81z"/>
<path class="st1" d="M174.92,78.85l-21.1-12.26c-2.52-1.46-5.32-2.19-8.13-2.19c-2.81,0-5.61,0.73-8.13,2.19l-21.1,12.26
	c-5.03,2.92-8.13,8.33-8.13,14.17v24.52c0,5.84,3.1,11.25,8.13,14.17l21.1,12.26c2.52,1.46,5.32,2.19,8.13,2.19
	c2.81,0,5.61-0.73,8.13-2.19l21.1-12.26c5.03-2.92,8.13-8.33,8.13-14.17V93.02C183.04,87.18,179.95,81.78,174.92,78.85z
	 M174.42,117.54c0,2.73-1.46,5.28-3.82,6.65l-21.1,12.26c-1.16,0.68-2.48,1.03-3.82,1.03c-1.34,0-2.66-0.35-3.82-1.03l-21.1-12.26
	c-2.35-1.37-3.82-3.92-3.82-6.65V93.02c0-2.73,1.46-5.28,3.82-6.65l21.1-12.26c1.16-0.67,2.48-1.03,3.82-1.03
	c1.34,0,2.66,0.36,3.82,1.03l21.1,12.26c2.35,1.37,3.82,3.92,3.82,6.65V117.54z"/>
<path class="st1" d="M93.78,171.51l-21.1-12.26c-2.52-1.46-5.32-2.19-8.13-2.19c-2.81,0-5.61,0.73-8.13,2.19l-21.1,12.26
	c-5.03,2.92-8.13,8.33-8.13,14.17v24.52c0,5.84,3.1,11.25,8.13,14.17l21.1,12.26c2.52,1.46,5.32,2.19,8.13,2.19
	c2.81,0,5.61-0.73,8.13-2.19l21.1-12.26c5.03-2.92,8.13-8.33,8.13-14.17v-24.52C101.9,179.84,98.81,174.44,93.78,171.51z
	 M93.28,210.2c0,2.73-1.46,5.28-3.82,6.65l-21.1,12.26c-1.16,0.68-2.48,1.03-3.82,1.03c-1.34,0-2.66-0.35-3.82-1.03l-21.1-12.26
	c-2.35-1.37-3.82-3.92-3.82-6.65v-24.52c0-2.73,1.46-5.28,3.82-6.65l21.1-12.26c1.16-0.67,2.48-1.03,3.82-1.03
	c1.34,0,2.66,0.36,3.82,1.03l21.1,12.26c2.35,1.37,3.82,3.92,3.82,6.65V210.2z"/>
<path class="st1" d="M174.92,253.52l-21.1-12.26c-2.52-1.46-5.32-2.19-8.13-2.19c-2.81,0-5.61,0.73-8.13,2.19l-21.1,12.26
	c-5.03,2.92-8.13,8.33-8.13,14.17v24.52c0,5.84,3.1,11.25,8.13,14.17l21.1,12.26c2.52,1.46,5.32,2.19,8.13,2.19
	c2.81,0,5.61-0.73,8.13-2.19l21.1-12.26c5.03-2.92,8.13-8.33,8.13-14.17V267.7C183.04,261.85,179.95,256.45,174.92,253.52z
	 M174.42,292.22c0,2.73-1.46,5.28-3.82,6.65l-21.1,12.26c-1.16,0.68-2.48,1.03-3.82,1.03c-1.34,0-2.66-0.35-3.82-1.03l-21.1-12.26
	c-2.35-1.37-3.82-3.92-3.82-6.65V267.7c0-2.73,1.46-5.28,3.82-6.65l21.1-12.26c1.16-0.67,2.48-1.03,3.82-1.03
	c1.34,0,2.66,0.36,3.82,1.03l21.1,12.26c2.35,1.37,3.82,3.92,3.82,6.65V292.22z"/>
<path class="st1" d="M641.23,168.4l-21.1-12.26c-2.52-1.46-5.32-2.19-8.13-2.19c-2.81,0-5.61,0.73-8.13,2.19l-21.1,12.26
	c-5.03,2.92-8.13,8.33-8.13,14.17v24.52c0,5.84,3.1,11.25,8.13,14.17l21.1,12.26c2.52,1.46,5.32,2.19,8.13,2.19
	c2.81,0,5.61-0.73,8.13-2.19l21.1-12.26c5.03-2.92,8.13-8.33,8.13-14.17v-24.52C649.36,176.72,646.26,171.32,641.23,168.4z
	 M640.73,207.09c0,2.73-1.46,5.28-3.82,6.65l-21.1,12.26c-1.16,0.68-2.48,1.03-3.82,1.03s-2.66-0.35-3.82-1.03l-21.1-12.26
	c-2.35-1.37-3.82-3.92-3.82-6.65v-24.52c0-2.73,1.46-5.28,3.82-6.65l21.1-12.26c1.16-0.67,2.48-1.03,3.82-1.03s2.66,0.36,3.82,1.03
	l21.1,12.26c2.35,1.37,3.82,3.92,3.82,6.65V207.09z"/>
</svg>
