<?xml version="1.0" encoding="utf-8"?>
<!-- Generator: Adobe Illustrator 25.0.1, SVG Export Plug-In . SVG Version: 6.00 Build 0)  -->
<svg version="1.1" id="Calque_1" xmlns="http://www.w3.org/2000/svg" xmlns:xlink="http://www.w3.org/1999/xlink" x="0px" y="0px"
	 viewBox="0 0 688.33 388.93" style="enable-background:new 0 0 688.33 388.93;" xml:space="preserve">
<style type="text/css">
	.st0{fill:#FFFFFF;}
	.st1{fill:#FDFDFD;}
	.st2{fill:none;}
</style>
<path class="st0" d="M165.55,137.52l-21.1-12.26c-2.52-1.46-5.32-2.19-8.13-2.19c-2.81,0-5.61,0.73-8.13,2.19l-21.1,12.26
	c-5.03,2.92-8.13,8.33-8.13,14.17v24.52c0,5.84,3.1,11.25,8.13,14.17l21.1,12.26c2.52,1.46,5.32,2.19,8.13,2.19
	c2.81,0,5.61-0.73,8.13-2.19l21.1-12.26c5.03-2.92,8.13-8.33,8.13-14.17v-24.52C173.68,145.84,170.58,140.44,165.55,137.52z
	 M165.06,176.21c0,2.73-1.46,5.28-3.82,6.65l-21.1,12.26c-1.16,0.68-2.48,1.03-3.82,1.03c-1.34,0-2.66-0.35-3.82-1.03l-21.1-12.26
	c-2.35-1.37-3.82-3.92-3.82-6.65v-24.52c0-2.73,1.46-5.28,3.82-6.65l21.1-12.26c1.16-0.67,2.48-1.03,3.82-1.03
	c1.34,0,2.66,0.36,3.82,1.03l21.1,12.26c2.35,1.37,3.82,3.92,3.82,6.65V176.21z"/>
<path class="st1" d="M239.16,176.14c-0.07,0.07-7.14,7.12-16.42,7.12c-11.3,0-17.22-8.72-17.22-17.33c0-9.91,7.05-17.11,16.77-17.11
	c8.6,0,14.43,5.93,14.49,5.99l0.65,0.67l7.13-11.07l-0.35-0.42c-0.3-0.36-7.52-8.85-22.71-8.85c-18.56,0-32.03,13-32.03,30.9
	s13.47,30.91,32.03,30.91c15.63,0,23.94-9.24,24.28-9.63l0.34-0.39l-6.26-11.5L239.16,176.14z"/>
<path class="st1" d="M277.42,135.14c-13.77,0-22.68,6.98-23.06,7.28l-0.48,0.38l6.11,11.59l0.69-0.51
	c0.07-0.05,7.48-5.39,15.38-5.39c6.95,0,10.33,3.08,10.33,9.42l-1.18,0.05c-13.02,0-34.86,2.64-34.86,20.29
	c0,12.28,10.21,18.7,20.29,18.7c6.95,0,11.51-2.82,14.11-5.19c1.11-1.01,2.01-2.07,2.68-3c-0.01,0.42-0.02,0.87-0.02,1.34v5.49h14.7
	v-36.78C302.11,143.77,293.11,135.14,277.42,135.14z M286.5,169.88c0,6.79-5.24,14.39-12.25,14.39c-5.49,0-7.95-3.37-7.95-6.71
	c0-6.85,10.04-8.29,18.46-8.29h1.74V169.88z"/>
<path class="st1" d="M348.36,135.7c-7.32,0-14,4.58-17.56,11.71c0-0.08,0-0.16,0-0.24v-10.68h-15.27v59.1h15.83v-23.56
	c0-3.62,0.39-6.61,1.21-9.15c2.69-8.53,9.51-11.57,14.99-11.57c1.83,0,3.26,0.22,3.28,0.22l0.86,0.13v-15.61l-0.61-0.11
	C351.03,135.93,349.76,135.7,348.36,135.7z"/>
<path class="st1" d="M392.3,135.14c-9.11,0-14.36,4.46-16.61,7.01c0.04-0.77,0.07-1.71,0.07-2.76V113.9h-15.83v81.69h15.04v-4.02
	c0-0.66-0.02-1.27-0.05-1.81c2.27,2.61,7.53,7.18,16.47,7.18c16,0,27.18-12.71,27.18-30.91
	C418.57,147.56,408.01,135.14,392.3,135.14z M388.91,183.37c-9.35,0-13.6-8.81-13.6-16.99c0-12.86,7.09-17.44,13.72-17.44
	c8.14,0,13.6,6.97,13.6,17.33C402.62,176.5,397.11,183.37,388.91,183.37z"/>
<path class="st1" d="M457.02,135.14c-18.46,0-32.37,13.29-32.37,30.9s13.97,30.91,32.49,30.91c18.46,0,32.37-13.29,32.37-30.91
	S475.54,135.14,457.02,135.14z M457.13,183.26c-9.36,0-16.43-7.4-16.43-17.22c0-9.82,7.06-17.22,16.43-17.22
	c9.3,0,16.31,7.4,16.31,17.22C473.45,175.86,466.43,183.26,457.13,183.26z"/>
<path class="st0" d="M534.51,135.14c-11.06,0-17.05,6.17-19.73,10.08c0.02-0.41,0.03-0.86,0.03-1.31v-7.41h-15.27v59.1h15.83v-27.18
	c0-3.08,0.31-5.44,0.98-7.46c2.16-6.92,7.82-11.23,14.77-11.23c5.97,0,8.4,3.19,8.4,11.01v34.86h15.72v-37.8
	C555.25,142.76,548.27,135.14,534.51,135.14z"/>
<path class="st2" d="M165.55,50.3l-21.1-12.26c-2.52-1.46-5.32-2.19-8.13-2.19c-2.81,0-5.61,0.73-8.13,2.19l-21.1,12.26
	c-5.03,2.92-8.13,8.33-8.13,14.17v24.52c0,5.84,3.1,11.25,8.13,14.17l21.1,12.26c2.52,1.46,5.32,2.19,8.13,2.19
	c2.81,0,5.61-0.73,8.13-2.19l21.1-12.26c5.03-2.92,8.13-8.33,8.13-14.17V64.47C173.68,58.63,170.58,53.23,165.55,50.3z
	 M165.06,88.99c0,2.73-1.46,5.28-3.82,6.65l-21.1,12.26c-1.16,0.68-2.48,1.03-3.82,1.03s-2.66-0.35-3.82-1.03l-21.1-12.26
	c-2.35-1.37-3.82-3.92-3.82-6.65V64.47c0-2.73,1.46-5.28,3.82-6.65l21.1-12.26c1.16-0.67,2.48-1.03,3.82-1.03s2.66,0.36,3.82,1.03
	l21.1,12.26c2.35,1.37,3.82,3.92,3.82,6.65V88.99z"/>
<path class="st2" d="M83.67,139.73l-21.1-12.26c-2.52-1.46-5.32-2.19-8.13-2.19c-2.81,0-5.61,0.73-8.13,2.19l-21.1,12.26
	c-5.03,2.92-8.13,8.33-8.13,14.17v24.52c0,5.84,3.1,11.25,8.13,14.17l21.1,12.26c2.52,1.46,5.32,2.19,8.13,2.19
	c2.81,0,5.61-0.73,8.13-2.19l21.1-12.26c5.03-2.92,8.13-8.33,8.13-14.17V153.9C91.8,148.05,88.71,142.65,83.67,139.73z
	 M83.18,178.42c0,2.73-1.46,5.28-3.82,6.65l-21.1,12.26c-1.16,0.68-2.48,1.03-3.82,1.03c-1.34,0-2.66-0.35-3.82-1.03l-21.1-12.26
	c-2.35-1.37-3.82-3.92-3.82-6.65V153.9c0-2.73,1.46-5.28,3.82-6.65l21.1-12.26c1.16-0.67,2.48-1.03,3.82-1.03
	c1.34,0,2.66,0.36,3.82,1.03l21.1,12.26c2.35,1.37,3.82,3.92,3.82,6.65V178.42z"/>
<path class="st2" d="M165.55,226.81l-21.1-12.26c-2.52-1.46-5.32-2.19-8.13-2.19c-2.81,0-5.61,0.73-8.13,2.19l-21.1,12.26
	c-5.03,2.92-8.13,8.33-8.13,14.17v24.52c0,5.84,3.1,11.25,8.13,14.17l21.1,12.26c2.52,1.46,5.32,2.19,8.13,2.19
	c2.81,0,5.61-0.73,8.13-2.19l21.1-12.26c5.03-2.92,8.13-8.33,8.13-14.17v-24.52C173.68,235.13,170.58,229.73,165.55,226.81z
	 M165.06,265.5c0,2.73-1.46,5.28-3.82,6.65l-21.1,12.26c-1.16,0.68-2.48,1.03-3.82,1.03c-1.34,0-2.66-0.35-3.82-1.03l-21.1-12.26
	c-2.35-1.37-3.82-3.92-3.82-6.65v-24.52c0-2.73,1.46-5.28,3.82-6.65l21.1-12.26c1.16-0.67,2.48-1.03,3.82-1.03
	c1.34,0,2.66,0.36,3.82,1.03l21.1,12.26c2.35,1.37,3.82,3.92,3.82,6.65V265.5z"/>
<path class="st2" d="M631.87,139.73l-21.1-12.26c-2.52-1.46-5.32-2.19-8.13-2.19c-2.81,0-5.61,0.73-8.13,2.19l-21.1,12.26
	c-5.03,2.92-8.13,8.33-8.13,14.17v24.52c0,5.84,3.1,11.25,8.13,14.17l21.1,12.26c2.52,1.46,5.32,2.19,8.13,2.19
	c2.81,0,5.61-0.73,8.13-2.19l21.1-12.26c5.03-2.92,8.13-8.33,8.13-14.17V153.9C640,148.05,636.9,142.65,631.87,139.73z
	 M631.37,178.42c0,2.73-1.46,5.28-3.82,6.65l-21.1,12.26c-1.16,0.68-2.48,1.03-3.82,1.03c-1.34,0-2.66-0.35-3.82-1.03l-21.1-12.26
	c-2.35-1.37-3.82-3.92-3.82-6.65V153.9c0-2.73,1.46-5.28,3.82-6.65l21.1-12.26c1.16-0.67,2.48-1.03,3.82-1.03
	c1.34,0,2.66,0.36,3.82,1.03l21.1,12.26c2.35,1.37,3.82,3.92,3.82,6.65V178.42z"/>
</svg>
